<svg width="76" height="15" viewBox="0 0 76 15" fill="none" xmlns="http://www.w3.org/2000/svg">
<g id="Logotype">
<path d="M0 14.7115V12.3214H1.8419V2.67857H0V0.288462H7.20744C8.06165 0.288462 8.80242 0.43956 9.42973 0.741758C10.0704 1.03022 10.5642 1.44918 10.9113 1.99863C11.2716 2.53434 11.4518 3.17995 11.4518 3.93544V4.14148C11.4518 4.80082 11.3317 5.34341 11.0914 5.76923C10.8512 6.18132 10.5642 6.50412 10.2306 6.73764C9.91023 6.95742 9.60324 7.11538 9.30961 7.21154V7.58242C9.60324 7.66483 9.92358 7.8228 10.2706 8.05632C10.6176 8.2761 10.9113 8.5989 11.1515 9.02472C11.4051 9.45055 11.5319 10.0069 11.5319 10.6937V10.8997C11.5319 11.6964 11.3517 12.3832 10.9913 12.9602C10.631 13.5234 10.1305 13.956 9.48979 14.2582C8.86248 14.5604 8.12839 14.7115 7.28752 14.7115H0ZM4.48463 12.239H6.96719C7.54112 12.239 8.00159 12.0948 8.34862 11.8063C8.70899 11.5179 8.88917 11.1058 8.88917 10.5701V10.364C8.88917 9.8283 8.71566 9.41621 8.36864 9.12775C8.02161 8.83929 7.55446 8.69506 6.96719 8.69506H4.48463V12.239ZM4.48463 6.22253H6.92715C7.47438 6.22253 7.92151 6.0783 8.26853 5.78983C8.62891 5.50137 8.80909 5.10302 8.80909 4.59478V4.38874C8.80909 3.86676 8.63558 3.46841 8.28855 3.19368C7.94153 2.90522 7.48773 2.76099 6.92715 2.76099H4.48463V6.22253Z" fill="#101828"/>
<path d="M17.4993 15C16.5116 15 15.624 14.794 14.8366 14.3819C14.0491 13.9698 13.4284 13.3723 12.9746 12.5893C12.5208 11.8063 12.2939 10.8654 12.2939 9.76648V9.43681C12.2939 8.33791 12.5208 7.39698 12.9746 6.61401C13.4284 5.83104 14.0491 5.23352 14.8366 4.82143C15.624 4.40934 16.5116 4.2033 17.4993 4.2033C18.487 4.2033 19.3746 4.40934 20.1621 4.82143C20.9495 5.23352 21.5702 5.83104 22.024 6.61401C22.4778 7.39698 22.7047 8.33791 22.7047 9.43681V9.76648C22.7047 10.8654 22.4778 11.8063 22.024 12.5893C21.5702 13.3723 20.9495 13.9698 20.1621 14.3819C19.3746 14.794 18.487 15 17.4993 15ZM17.4993 12.6923C18.2734 12.6923 18.9141 12.4382 19.4213 11.9299C19.9285 11.408 20.1821 10.6662 20.1821 9.70467V9.49863C20.1821 8.53709 19.9285 7.8022 19.4213 7.29396C18.9275 6.77198 18.2868 6.51099 17.4993 6.51099C16.7252 6.51099 16.0845 6.77198 15.5773 7.29396C15.0701 7.8022 14.8165 8.53709 14.8165 9.49863V9.70467C14.8165 10.6662 15.0701 11.408 15.5773 11.9299C16.0845 12.4382 16.7252 12.6923 17.4993 12.6923Z" fill="#101828"/>
<path d="M24.0321 14.7115V0.288462H26.5548V14.7115H24.0321Z" fill="#101828"/>
<path d="M32.153 14.7115C31.499 14.7115 30.9651 14.5055 30.5514 14.0934C30.151 13.6676 29.9508 13.1044 29.9508 12.4038V6.63462H27.4682V4.49176H29.9508V1.31868H32.4734V4.49176H35.1962V6.63462H32.4734V11.9505C32.4734 12.3626 32.6602 12.5687 33.0339 12.5687H34.9559V14.7115H32.153Z" fill="#101828"/>
<path d="M40.6028 15C39.3082 15 38.2471 14.7115 37.4196 14.1346C36.592 13.5577 36.0915 12.7335 35.918 11.6621L38.2404 11.044C38.3338 11.5247 38.4873 11.9025 38.7009 12.1772C38.9278 12.4519 39.2014 12.6511 39.5217 12.7747C39.8554 12.8846 40.2158 12.9396 40.6028 12.9396C41.1901 12.9396 41.6239 12.8365 41.9042 12.6305C42.1845 12.4107 42.3246 12.1429 42.3246 11.8269C42.3246 11.511 42.1912 11.2706 41.9242 11.1058C41.6573 10.9272 41.2302 10.783 40.6429 10.6731L40.0823 10.5701C39.3883 10.4327 38.7543 10.2473 38.1803 10.0137C37.6064 9.76648 37.1459 9.42995 36.7989 9.00412C36.4519 8.5783 36.2784 8.02885 36.2784 7.35577C36.2784 6.33929 36.6388 5.56319 37.3595 5.02747C38.0802 4.47802 39.0279 4.2033 40.2024 4.2033C41.3102 4.2033 42.2312 4.45742 42.9653 4.96566C43.6994 5.4739 44.1799 6.14011 44.4068 6.96429L42.0644 7.70604C41.9576 7.18407 41.7373 6.81319 41.4037 6.59341C41.0833 6.37363 40.6829 6.26374 40.2024 6.26374C39.7219 6.26374 39.3549 6.35302 39.1013 6.53159C38.8477 6.69643 38.7209 6.92994 38.7209 7.23214C38.7209 7.56181 38.8544 7.80907 39.1213 7.9739C39.3883 8.125 39.7486 8.24176 40.2024 8.32418L40.763 8.4272C41.5104 8.56456 42.1845 8.75 42.7851 8.98352C43.3991 9.2033 43.8796 9.5261 44.2266 9.95192C44.587 10.364 44.7671 10.9272 44.7671 11.6415C44.7671 12.7129 44.3867 13.544 43.626 14.1346C42.8785 14.7115 41.8708 15 40.6028 15Z" fill="#101828"/>
<path d="M45.9767 14.7115V0.288462H48.4993V5.74863H48.8596C48.9664 5.52885 49.1333 5.30907 49.3602 5.08929C49.5871 4.86951 49.8874 4.69093 50.2611 4.55357C50.6482 4.40247 51.1353 4.32692 51.7226 4.32692C52.4967 4.32692 53.1708 4.51236 53.7447 4.88324C54.332 5.24038 54.7858 5.74176 55.1061 6.38736C55.4264 7.01923 55.5866 7.76099 55.5866 8.61264V14.7115H53.064V8.81868C53.064 8.04945 52.8771 7.47253 52.5034 7.08791C52.143 6.7033 51.6225 6.51099 50.9418 6.51099C50.1677 6.51099 49.567 6.77885 49.1399 7.31456C48.7128 7.83654 48.4993 8.57143 48.4993 9.51923V14.7115H45.9767Z" fill="#101828"/>
<path d="M57.3126 14.7115V4.49176H59.8352V14.7115H57.3126ZM58.5739 3.2967C58.1201 3.2967 57.733 3.1456 57.4127 2.84341C57.1057 2.54121 56.9522 2.14286 56.9522 1.64835C56.9522 1.15385 57.1057 0.755495 57.4127 0.453297C57.733 0.151099 58.1201 0 58.5739 0C59.041 0 59.4281 0.151099 59.7351 0.453297C60.0421 0.755495 60.1956 1.15385 60.1956 1.64835C60.1956 2.14286 60.0421 2.54121 59.7351 2.84341C59.4281 3.1456 59.041 3.2967 58.5739 3.2967Z" fill="#101828"/>
<path d="M63.2712 14.7115V6.63462H60.7486V4.49176H63.2712V2.59615C63.2712 1.8956 63.4714 1.33929 63.8719 0.927198C64.2856 0.501374 64.8195 0.288462 65.4735 0.288462H68.0762V2.43132H66.3544C65.9807 2.43132 65.7938 2.63736 65.7938 3.04945V4.49176H68.3965V6.63462H65.7938V14.7115H63.2712Z" fill="#101828"/>
<path d="M72.9569 14.7115C72.3029 14.7115 71.769 14.5055 71.3552 14.0934C70.9548 13.6676 70.7546 13.1044 70.7546 12.4038V6.63462H68.272V4.49176H70.7546V1.31868H73.2772V4.49176H76V6.63462H73.2772V11.9505C73.2772 12.3626 73.4641 12.5687 73.8378 12.5687H75.7598V14.7115H72.9569Z" fill="#101828"/>
</g>
</svg>
